# xmcd CD database file
# Copyright (C) 1993-1998 Ti Kan
#
# Track frame offsets:
#	150
#	21385
#	53010
#	63850
#	82245
#	109940
#	132245
#	148835
#	166630
#	186295
#	200530
#	227535
#	250690
#	269090
#	281750
#
# Disc length: 4001 seconds
#
# Revision: 1
# Processed by: cddbd v1.4b41PL1 Copyright (c) Steve Scherf et al.
# Submitted via: CDValet v3.01 - Copyright (c) 1997 Greg Leichner
#
DISCID=de0f9f0f
DTITLE=Nina Simone - Nina Simone - Red Line Selection
DYEAR=1900
DGENRE=
TTITLE0=Just In Time
TTITLE1=House of the Rising Sun
TTITLE2=It Don't Mean A Thing
TTITLE3=I Loves you pergy
TTITLE4=Gin House Blues
TTITLE5=Assignment Song
TTITLE6=Solitude
TTITLE7=Sea Lion Woman
TTITLE8=No Oppertunity Necessary, No Experience Needed
TTITLE9=Black is The Colour
TTITLE10=Wild is The Wind
TTITLE11=Nobody
TTITLE12=Don't Let Me Be Misunderstood
TTITLE13=Do Nothin' 'Till You Hear From Me
TTITLE14=I Got It Bad and That Ain't Good
EXTD=Collection CD
EXTT0=
EXTT1=
EXTT2=
EXTT3=
EXTT4=
EXTT5=
EXTT6=
EXTT7=
EXTT8=
EXTT9=
EXTT10=
EXTT11=
EXTT12=
EXTT13=
EXTT14=
PLAYORDER=
